<?xml version="1.0" encoding="UTF-8"?>
<svg id="Layer_1" data-name="Layer 1" xmlns="http://www.w3.org/2000/svg" version="1.1" viewBox="0 0 332.3 67.8">
  <defs>
    <style>
      .cls-1 {
        fill: #515354;
        stroke-width: 0px;
      }
    </style>
  </defs>
  <path class="cls-1" d="M98.3,22.4c2,0,3.6-2,3-3.9-.4-1.6-2.1-2.5-3.7-2.1-1.1.3-2,1.2-2.2,2.3-.4,1.8,1.1,3.7,2.9,3.6h0Z"/>
  <path class="cls-1" d="M283.5,16.4c-1.8.5-2.7,2.4-2,4.1.7,1.8,3,2.4,4.5,1.4,1.6-1,1.8-3.4.5-4.7-.8-.8-2-1.1-3-.8Z"/>
  <path class="cls-1" d="M19.2,28c-1.9-.8-4.2-1.2-6.3-1.6-.7-.2-1.5-.4-2.1-.9-.5-.4-.4-1-.3-1.5.5-.8,1.4-1.1,2.3-1.1,2.5,0,4.8.9,6.8,2.3,1.1-1.4,2.2-2.8,3.2-4.3-2.6-2.1-5.9-3.2-9.2-3.1-2,0-4,.4-5.8,1.3-1.3.7-2.4,1.9-3,3.3-.7,1.7-.7,3.6,0,5.3.6,1.3,1.8,2.3,3.1,2.9,2.3,1.1,4.6,1.3,6.9,1.9.8.2,1.8.5,2.3,1.3.3.8.1,1.5-.6,1.9-1.3.9-3.4.7-4.9.4-1.9-.4-3.4-1.4-4.9-2.7-1.1,1.4-2.2,2.9-3.2,4.4,2.1,2,4.9,3.2,7.8,3.5,2.8.4,6.3.2,8.8-1.4,2.7-1.7,3.9-5.4,2.8-8.4-.7-1.7-2.2-2.8-3.8-3.5h0Z"/>
  <path class="cls-1" d="M218.2,41c-.1-.5-.3-1-.5-1.4-2.7-7.1-5.4-14.3-8.1-21.4h-7c-.7,0-.7.5-.9,1-2.7,7.3-5.5,14.6-8.2,21.9h6.1c.4,0,.4-.4.6-.7.3-.9.6-1.8.9-2.7,1.7-.2,3.4,0,5,0h4.5c.4,1.1.7,2.2,1.1,3.3h6.5ZM202.8,32.6c1-3,2-6.1,3.1-9.1.7,1.7,1.2,3.4,1.8,5.1.5,1.3,1,2.6,1.3,4h-6.2Z"/>
  <path class="cls-1" d="M84.4,36.8c0,1.3.4,2.7,1.4,3.5,1.1,1,2.9,1.2,4.3,1.1,1.2,0,2.5-.3,3.4-1.1-.3-1.3-.7-2.5-1-3.8-.7,0-1.7.4-2.3,0-.6-.5-.5-1.1-.6-1.8v-5.5h3.3v-4.6h-3.3v-4.5h-5.2v4.5h-2.7v4.6h2.7v7.7h0Z"/>
  <path class="cls-1" d="M49.5,24.1c-2,.3-4,1.3-5.4,2.9-2.9,3.4-2.7,9.2.7,12.2,1.8,1.6,4.1,2.3,6.4,2.3s4.6-.7,6.4-2.4c3.2-3.1,3.5-8.6.7-12-2.1-2.5-5.6-3.5-8.8-3ZM54.6,34c-.3,1.1-1,2-2.1,2.5-1.6.7-3.6,0-4.4-1.4-1.1-2-.6-5.4,1.9-6.2,1.4-.4,3,0,3.9,1.2s.9,2.6.7,4h0Z"/>
  <path class="cls-1" d="M121.4,29.2c0-1.5-.4-2.9-1.6-3.9-1.7-1.5-4.4-1.6-6.4-.9-1.3.4-2.2,1.1-3.2,1.9v-1.8h-5.3v16.6h5.3v-10.7c1-1.4,3-2,4.6-1.4.8.4,1.2,1.2,1.3,2.2v9.9h5.3v-11.8h0Z"/>
  <path class="cls-1" d="M136.4,24.5v1.7c-.8-.7-1.6-1.4-2.6-1.8-1.7-.7-3.7-.5-5.4.2-1.9.8-3.3,2.6-3.8,4.6-.6,2.4-.6,5,.3,7.3.8,2.1,2.6,3.6,4.8,4.1,1.4.3,3,.3,4.3-.3.9-.4,1.6-1.1,2.4-1.8,0,1.3,0,2.6-.9,3.6-1.2,1.5-3.5,1.5-5.3,1.1-1.3-.2-2.2-.9-3.3-1.6-.7,1.2-1.6,2.5-2.2,3.8,2,1.6,4.5,2.5,7,2.4,2.6,0,5.4-.4,7.4-2.2,1.7-1.5,2.4-3.8,2.4-6.1v-15h-5.3.2ZM136.3,34.7c-1.4,1.6-4.1,1.9-5.7.4-1.2-1.2-1.3-3.4-.4-4.9,1.3-2.1,4.8-1.9,6.2,0,.1.8,0,1.5,0,2.3s0,1.5-.1,2.2Z"/>
  <path class="cls-1" d="M229.2,29c.7.4,1,1.1,1,1.9v10.2h5.3v-9.9c0-.4,0-.8.3-1.1.9-1,2.3-1.5,3.7-1.1.8.3,1.2,1.1,1.2,2v10.2h5.3v-12c0-1.6-.5-3.2-1.9-4.1-1.8-1.1-4.2-1-6-.2-1.2.5-1.9,1.3-2.8,2.1-.6-1.1-1.3-2-2.5-2.4-2.7-.9-5.5,0-7.6,1.9v-1.8h-5.3v16.6h5.3v-10.7c.8-1.3,2.6-2,4-1.4v-.2Z"/>
  <path class="cls-1" d="M261.3,24.8c-2.7-1.2-5.9-1-8.4.5-1.9,1.2-3.3,3.1-3.8,5.3-.7,3.1,0,6.6,2.6,8.7,1.9,1.7,4.3,2.2,6.8,2.2,2.4-.2,4.6-.6,6.4-2.2-.7-1.1-1.4-2.2-2.2-3.2-1,.5-2,1.1-3.2,1.2-1.3,0-2.5,0-3.6-.6-.8-.5-1.3-1.2-1.6-2.1h11.8c.1-2.3-.1-4.5-1.3-6.5-.8-1.4-2.1-2.5-3.5-3.2h0ZM254.3,30.9c.3-1.2,1-2.2,2.2-2.6,1.3-.3,2.8-.2,3.7.8.5.5.7,1.1.9,1.8h-6.8Z"/>
  <path class="cls-1" d="M321,25.6c-1.1-.9-2.6-1.4-4-1.5-3.2-.4-6.7.4-9.2,2.5.6,1.1,1.2,2.2,1.8,3.3,1.2-.6,2.2-1.3,3.6-1.5,1.3-.2,3-.2,4,.9.8.8.5,2.2.5,3.2-2.5-1.8-6-2.3-8.7-.7-2.1,1.3-2.5,3.9-1.9,6.2.6,1.8,2.3,3.1,4.2,3.5,2.3.5,4.4-.3,6.3-1.6,0,.4.1.9.2,1.3h5.2v-10.7c0-1.8-.6-3.5-2-4.7v-.2ZM315.8,37.9c-1.2.3-3.1,0-3.5-1.4-.3-1.1.5-2,1.5-2.2h2.4c.8.3,1.8.6,1.6,1.7.2,1.3-1,1.6-2,1.9Z"/>
  <path class="cls-1" d="M35.4,28.9c.8.2,1.4.9,2,1.4,1.1-1.1,2.3-2.1,3.4-3.2-.8-1.2-2-1.9-3.3-2.5-2.4-.9-5.1-.8-7.5.2-1.9.8-3.6,2.3-4.4,4.3-1.6,3.7-.7,8.3,2.7,10.7,1.7,1.3,3.8,1.7,5.9,1.7s5.1-.9,6.6-3c-1.1-1.1-2.2-2.2-3.4-3.2-.6.5-1.3,1.1-2.1,1.4-1.6.5-3.5,0-4.4-1.5-1-1.6-.9-3.8.3-5.2,1-1.1,2.6-1.3,4.1-1h.1Z"/>
  <path class="cls-1" d="M279.2,24c-2.1,0-3.5,1.1-5.1,2.2v-1.8h-5.2v16.6h5.2v-10.4c1.1-1.6,3.4-1.6,5.1-1.5v-5.1Z"/>
  <path class="cls-1" d="M302.2,35.2c-.6.5-1.3,1.1-2.1,1.4-1.7.5-3.7-.2-4.6-1.8-.8-1.6-.6-4,.8-5.2,1-.9,2.3-1,3.5-.8.9.2,1.6.8,2.2,1.4,1.1-1,2.3-2.1,3.4-3.2-1.1-1.5-2.8-2.5-4.7-2.8-2.9-.6-6.2,0-8.4,2-2.9,2.5-3.6,7-2,10.4,1,2.2,3.2,3.9,5.5,4.5,3.3.8,7.4.2,9.5-2.7-1.1-1.1-2.2-2.2-3.4-3.2h.3Z"/>
  <path class="cls-1" d="M79.5,31.1v-6.7h-5.3v10.8c-1.1,1.4-3.4,2-5,1-1-.8-.7-2.1-.8-3.2v-8.6h-5.2v11.5c0,1.2,0,2.4.8,3.4.7,1.1,1.8,1.7,3,1.9,2.6.5,5.3-.2,7.3-2.1v1.8h5.2v-9.9h0Z"/>
  <path class="cls-1" d="M100.9,41v-16.6h-5.2v16.6c1.7,0,3.5,0,5.2,0Z"/>
  <path class="cls-1" d="M286.9,30.9v-6.4h-5.2v16.6h5.2c.1-3.4,0-6.8,0-10.2Z"/>
  <path class="cls-1" d="M120.9,52c-.7.4-1,1.3-.4,1.9.6.7,1.9.5,2.1-.4.3-1-.8-1.9-1.7-1.5Z"/>
  <path class="cls-1" d="M197.6,63.2c-1.2.2-2.5.2-3.6-.6-2-1.5-2.4-4.5-1.1-6.6,1-1.6,3.1-2.4,4.9-1.8.9.3,1.4.9,2,1.6.6-.2,1.2-.5,1.8-.9-1.3-2.3-4-3.3-6.5-2.7-2.5.4-4.5,2.4-5,4.9-.1,1.1-.1,2.2,0,3.3.4,1.9,1.8,3.6,3.6,4.4,1.4.6,3,.8,4.5.4s2.7-1.3,3.5-2.6c-.6-.3-1.1-.7-1.7-1-.7.6-1.4,1.5-2.4,1.7h0Z"/>
  <path class="cls-1" d="M246.1,52c-.9.4-1,1.5-.3,2.1s1.8.2,2-.8c.2-.9-.8-1.7-1.7-1.3Z"/>
  <path class="cls-1" d="M92.5,52.3c-1.1,2.8-2.2,5.7-3.4,8.5-1.2-2.8-2.2-5.7-3.5-8.6h-3.1v12.8h2.2v-9.6c1.4,3.1,2.5,6.4,3.9,9.5h.9c1.4-3.2,2.6-6.5,4-9.7v9.6h2.3v-12.8h-3.2v.2h-.1Z"/>
  <path class="cls-1" d="M113.5,55.6c-1,.2-1.6.7-2.4,1.3v-4.6h-1.9v12.7h1.9v-1.1c.5.4,1,.9,1.6,1.1,1.7.7,3.9,0,4.7-1.7.9-1.8.9-4.1,0-5.9-.8-1.4-2.4-2.2-3.9-1.9h0ZM116.1,61.4c-.2,1.3-1.3,2.2-2.6,2.1-.9,0-1.6-.5-2.3-1v-4c.5-.4.9-.8,1.5-1,1.1-.4,2.3,0,2.9,1,.6.8.5,2,.4,2.9h0Z"/>
  <path class="cls-1" d="M125.1,52.3c-.2.9,0,2,0,2.9v6c0,1.3-.2,2.6,0,3.9h2v-12.8h-2Z"/>
  <path class="cls-1" d="M151.5,52.3h-2.6c-.6,1-.9,2.2-1.3,3.3-1.2,3.2-2.5,6.3-3.6,9.5h2.3c.4-.8.7-1.7,1.1-2.5h6c.3.8.6,1.6,1,2.4h2.3c-1.4-4-3.1-7.9-4.6-11.9-.1-.3-.2-.7-.5-.9h0ZM147.9,60.6c.8-2.2,1.5-4.4,2.4-6.5.8,2.2,1.6,4.3,2.3,6.4h-4.7Z"/>
  <path class="cls-1" d="M250.3,52.3v12.8h2v-12.8h-2Z"/>
  <path class="cls-1" d="M105.8,56.7c-.9-.9-2.3-1.2-3.6-1.1-1.8,0-3.3,1.3-3.9,2.9-.9,2.2,0,5.2,2.1,6.4,2,1,4.7.6,6-1.2,1.5-2,1.3-5.2-.6-6.9h0ZM104.8,62.5c-1,1.4-3.3,1.4-4.2,0-1-1.5-.8-4.2,1.1-5,.9-.3,1.9-.2,2.6.4,1.3,1.1,1.3,3.3.5,4.6Z"/>
  <path class="cls-1" d="M130.6,56.7c-1.8,1.6-2.1,4.6-.8,6.6,1.5,2.5,5.7,2.7,7.7.7-.3-.4-.5-.7-.8-1.1-1.2.5-2.1,1.1-3.4.8-1.3-.3-2.1-1.2-2.2-2.5h7.1c0-1.6-.3-3.2-1.4-4.4-1.6-1.6-4.4-1.6-6,0h-.2ZM131,59.7c.1-.6.2-1.2.7-1.7.9-1.2,3.2-1.2,4,.2.3.5.4,1,.5,1.5h-5.2Z"/>
  <path class="cls-1" d="M160.1,56.9c0-.4,0-.8-.1-1.2h-1.9v9.3h2v-6.1c0-.6.4-.8.8-1.1.7-.4,1.3-.5,2.1-.5v-1.9c-1.1,0-2,.7-2.8,1.4h-.1Z"/>
  <path class="cls-1" d="M171.3,56.4c-1.9-1.4-4.8-1-6.2.9-1,1.4-1.1,3-.8,4.7.4,1.4,1.6,2.7,3,3.1,1.7.6,3.8,0,5.2-1-.2-.5-.5-.9-.8-1.3-1.2.7-2.3,1.2-3.8.7-1.1-.3-1.7-1.3-1.9-2.4h7.1c0-1.8-.4-3.6-1.9-4.7h0ZM166,59.7c.2-.8.4-1.5,1-2,.8-.7,2.2-.7,3.1,0,.8.5,1,1.3,1.2,2.1h-5.3Z"/>
  <path class="cls-1" d="M182.3,56.9c-.8-1.2-2.4-1.5-3.7-1.4-1.2,0-2.6.5-3.4,1.5.2.4.5.9.7,1.3.8-.5,1.5-1.1,2.4-1.1s1.8,0,2.2.9c.4.6.3,1.4.3,2.1-1.3-.7-2.5-1.2-4-.8-1.7.4-2.6,2.4-1.9,4,.5,1.3,2,2,3.4,1.9.8,0,1.5-.5,2.2-.8.7.7,1.4.6,2.3.6v-5.6c0-.9,0-1.8-.5-2.6ZM180.9,63c-.9.9-2.3,1.1-3.4.6-1.1-.6-.9-2.4.2-2.8,1-.4,2.4-.2,3.1.7.1.5,0,1.1,0,1.6h0Z"/>
  <path class="cls-1" d="M207.1,55.5c-2.4.3-4,2.2-4.1,4.5-.2,2.2,1.1,4.5,3.3,5,2.4.7,5-.5,5.8-2.9.4-1.6.3-3.7-.8-5.1-1-1.2-2.7-1.8-4.2-1.6h0ZM209.7,62.7c-1,1.2-3.1,1.1-4-.2-1.1-1.5-.8-4.4,1.2-5.1,1.1-.4,2.4,0,3,.9.9,1.2.8,3.3-.2,4.3h0Z"/>
  <path class="cls-1" d="M231.7,55.7c-1.7-.5-3,.2-4.4,1.1,0-.3,0-.7-.1-1h-1.9v6.7c0,.9,0,1.7.1,2.6h1.9v-6.5c.8-1.1,2.4-1.6,3.6-.9.5.3.6.9.7,1.5v6h1.9v-6.9c0-1.2-.6-2.2-1.8-2.6Z"/>
  <path class="cls-1" d="M239.6,57.4c1.2-.4,2,.2,3,.8.4-.3.8-.7,1.2-1.1-1.8-2.1-5.2-2.1-7.1,0-1.5,1.7-1.6,4.7-.2,6.6,1.7,2.2,5.5,2.4,7.2,0-.4-.4-.8-.8-1.2-1.1-1,.8-1.9,1.2-3.2.9-2.5-.8-2.5-5.4.2-6h.1Z"/>
  <path class="cls-1" d="M120.4,55.7v9.3h2v-9.3h-2Z"/>
  <path class="cls-1" d="M220.9,55.8v6c0,.9-1,1.5-1.7,1.7-.7,0-1.6.2-2.1-.3-.5-.4-.5-1-.5-1.6v-5.7h-1.9v6c0,.9,0,1.8.5,2.6.5.7,1.4,1,2.3,1.1,1.1,0,2.1-.4,3.1-1,.3.2.6.5.9.7h1.5c.1-3.1,0-6.2,0-9.4h-2.1Z"/>
  <path class="cls-1" d="M245.6,55.7v9.3h1.9v-9.3h-1.9Z"/>
  <g>
    <path class="cls-1" d="M325,39.4h-.6v-.4h1.7v.4h-.6v1.8h-.5v-1.8Z"/>
    <path class="cls-1" d="M328.2,40.3v-.9h0c0,.3-.2.6-.2.8l-.3.9h-.4l-.2-.8c0-.3-.1-.6-.2-.9h0v1.7h-.5v-2.2h.8l.2.7c0,.3.1.5.2.8h0c0-.3.1-.5.2-.8l.2-.7h.6v2.2c.1,0-.4,0-.4,0v-.8h0Z"/>
  </g>
  <g>
    <path class="cls-1" d="M163.1,12.8c-.7,1.4-1.2,2.8-1.5,4.3,0,.2,0,.4-.1.6-1.3-.7-2.8-1-4.3-1.2h-1.7c-1.5,0-3,.7-4.2,1.5-.6.4-1.1.8-1.5,1.3h2c1.2-.8,2.6-1.4,4.1-1.5,1.4,0,2.9.2,4.3.7.5.2,1,.4,1.5.7.3.2.7.5,1,.7,0-.7.1-1.4.3-2.1.4-2.3,1.4-4.4,2.5-6.4,1.2-2.2,2.5-4.4,3.7-6.6.6,1.2,1.2,2.4,1.9,3.5.8,1.5,1.7,3,2.5,4.5.9,1.7,1.6,3.5,1.9,5.5,0,.6.1,1.1.2,1.7.4-.2.7-.5,1.1-.8,1.4-.8,3-1.2,4.6-1.3h1.4c1.3.2,2.6.7,3.7,1.4h2c-.5-.6-1.2-1-1.8-1.4-1.3-.8-2.8-1.3-4.3-1.3s-2.8,0-4.1.6c-.5.2-1.1.4-1.6.6,0-.3-.1-.7-.2-1-.5-2-1.3-3.8-2.3-5.6-1.3-2.5-2.8-4.8-4-7.3-.3-.7-.7-1.4-1-2.1h0c-.5,1.2-1.1,2.4-1.7,3.6-1.3,2.5-2.9,5-4.1,7.5h-.3,0Z"/>
    <path class="cls-1" d="M169.9,18.8c-.2-2.6-.4-5.2-.6-7.8-.1-1.7-.2-3.5-.4-5.2-.3,4-.6,8-.8,12.1v1h1.8Z"/>
    <path class="cls-1" d="M184.7,20h-5.2c-.6,0-1.2,0-1.7.2-1.2.4-2.3,1.1-3.3,2-.6.6-1.1,1.1-1.7,1.6-.3.2-.5.4-.9.6,0,0-.2,0-.2-.2-.1-.2-.2-.5-.3-.8-.2-1-.3-2.1-.5-3.1.2-.3.3-.6.5-.8h-1c-.6,0-1.3-.2-1.9,0-.5,0-.8.5-1,.9h-1.1c-.2,0-.4,0-.5.3s-.1.6,0,.9c0,0,.2.3.3.3h.2s-.2-.3-.1-.5c0,0,.3-.2.4-.2h1.3c.2,0,.3,0,.5-.2.1,0,.1-.2.2-.3h-.5v-.2c.5,0,1.1-.2,1.7,0,.2,0,.4.2.5.4.2,1.2.4,2.4.6,3.6-.8,0-1.7.2-2.5,0h-.5c.2-.6.4-1.3.6-1.9v-.5c0-.2-.1-.2-.2-.3-.3-.2-.6-.2-.9-.2h-.9c.1,0,.2.3.3.4.2.2.5.3.7.4-.1.4-.3.8-.5,1.3,0,.2-.3.4-.4.5-.1,0-.3.2-.4.2h-.3c-.2,0-.5-.3-.7-.5-.7-.5-1.3-1.1-1.9-1.7-.9-.9-2.1-1.6-3.4-1.9h-11.2c.1.3.3.6.6.8.2,0,.3.2.5.2,1,0,1.9.2,2.9.3.5,0,1,0,1.5.2h-4.5c.2.4.5.7.9.9.2,0,.4,0,.6.2.7,0,1.5.2,2.2.3h1-3.4c.2.4.4.7.8.9.2,0,.4.2.6.2,1.1.2,2.3.3,3.4.4h-3.3c.3.4.7.8,1.2,1,.3,0,.7,0,1,.2.9,0,1.8.2,2.7.3h-3.1c.3.4.7.8,1.2.9.5,0,1,.2,1.5.2s1.2.2,1.8.2h-2.7c.4.6,1.1,1,1.8,1.1.8,0,1.7.3,2.5.4h-1.9c.4.3.8.6,1.2.8.3,0,.6.2.9.3.6,0,1.2.2,1.7.3h-1.3c.9.5,1.8,1,2.6,1.6v.3c-1,1-2,2-3,2.9.3.6.8,1.1,1.3,1.5.3.3.7.5,1.1.8h.3c.5-1,.9-2.1,1.4-3.2,0,0,.1-.2.1-.3s-.1-.3-.2-.4c-.5-1.2-.7-2.6-.8-3.9v-1.6c0-.5,0-1,.1-1.5,1.6-.4,3.2-.7,4.8-1.1h.3c1.6.4,3.2.7,4.8,1.1.1,1,.1,2,0,3.1-.1,1.3-.3,2.7-.8,3.9,0,0-.1.2-.1.4v.2c.5,1.1,1,2.2,1.5,3.3.5-.3.9-.6,1.4-1s.9-.9,1.2-1.4c-1-1-2-2-3-2.9v-.2c.9-.5,1.8-1.1,2.6-1.6h-1.3c.6,0,1.2-.2,1.7-.3.3,0,.6,0,.9-.3.4-.2.8-.5,1.2-.8h-1.9c.8,0,1.6-.2,2.5-.4.2,0,.4,0,.6-.2.5-.2.9-.6,1.2-1h-2.7c.9,0,1.8-.3,2.8-.4.3,0,.6,0,.9-.2.4-.2.7-.5.9-.8h-3,.9c.9,0,1.8-.2,2.7-.3.6,0,1-.6,1.3-1h-3.2c1,0,2-.2,2.9-.3.3,0,.6,0,.9-.2.4-.2.7-.6.9-1h-3.4.7c1,0,1.9-.2,2.9-.3.5,0,.9-.6,1.2-1h-4.5c.8,0,1.6-.2,2.4-.3.7,0,1.4-.2,2.2-.3.5,0,.8-.5.9-1h-4.6v-.2h0Z"/>
    <path class="cls-1" d="M152.2,33.3c.4.3.8.5,1.2.7.3,0,.6.3.9.5-.3-.8-.3-1.7,0-2.6.4-1,1-1.8,1.8-2.5.3-.3.7-.5,1.1-.6-.4-.3-.9-.6-1.3-.8-.8.5-1.5,1.1-2,1.9-.5.7-.9,1.5-1,2.4-1.4-.9-2.6-2.2-3.4-3.8-.5-1-.8-2.2-.8-3.4s0-1.5.3-2.3c0-.2.2-.5.3-.7-.3-.4-.6-.8-.9-1.2-.6,1.1-1,2.3-1,3.6v.8c0,1.4.4,2.7,1,4,.8,1.6,2.2,3,3.7,4.1h0Z"/>
    <path class="cls-1" d="M188.5,22.1c0,.2.2.4.2.6.3.9.4,1.9.3,2.9,0,.8-.2,1.5-.5,2.3-.7,1.8-2,3.2-3.6,4.3-.3-1.2-.8-2.2-1.7-3.1-.4-.4-.9-.8-1.4-1.1-.4.3-.9.6-1.3.8.2,0,.4.2.6.3,1,.6,1.8,1.6,2.3,2.8.3.8.3,1.7,0,2.6.4-.2.9-.4,1.3-.7,1.1-.6,2.1-1.4,3-2.4,1.1-1.2,1.9-2.6,2.3-4.1.2-.7.3-1.3.3-2v-.8c0-1.3-.4-2.5-1-3.6-.3.4-.6.8-.9,1.2h0Z"/>
    <path class="cls-1" d="M152.6,26.7c-.2-.6-.4-1.2-.6-1.8-.2.6-.4,1.2-.6,1.8h-1.8c.5.4,1,.7,1.5,1.1-.1.3-.2.6-.3.8,0,.3-.2.6-.3.9.5-.4,1-.7,1.5-1.1.5.4,1,.7,1.5,1.1-.2-.6-.4-1.2-.6-1.8.5-.4,1-.7,1.5-1.1h-1.8,0Z"/>
    <path class="cls-1" d="M186.3,26.7c-.2-.6-.4-1.2-.6-1.7,0,.2-.1.4-.2.6-.1.4-.3.8-.4,1.2h-1.8c.4.3.7.5,1.1.8.1,0,.3.2.4.3,0,0,0,.3-.1.4l-.4,1.4c.5-.3,1-.7,1.4-1h.2c.5.3.9.7,1.4,1-.2-.6-.4-1.2-.6-1.8.5-.4,1-.7,1.5-1.1h-1.9,0Z"/>
    <path class="cls-1" d="M173.3,27.1c-1.3-.3-2.7-.6-4-.9h-.5c-1.4.3-2.8.6-4.2,1v2.5h8.8v-2.6h-.1ZM165.8,29.4c-.1,0-.2-.2-.3-.2s-.2,0-.3.2c0,0,0-.3.1-.4-.1,0-.2-.2-.3-.2h.4s0-.3.1-.4c0,0,0,.3.1.4h.4c-.1,0-.2.2-.3.2,0,0,0,.3.1.4ZM165.6,27.8s0,.3.1.4c-.1,0-.2-.2-.3-.2s-.2.2-.3.2c0,0,0-.3.1-.4-.1,0-.2-.2-.3-.2h.4s0-.3.1-.4c0,0,0,.3.1.4h.4c-.1,0-.2.2-.3.2ZM166.1,27.3h.4s0-.3.1-.4c0,0,0,.3.1.4h.4c-.1,0-.2,0-.3.2,0,0,0,.3.1.4-.1,0-.2-.2-.3-.2s-.2.2-.3.2c0,0,0-.3.1-.4-.1,0-.2-.2-.3-.2ZM167.2,29.4c-.1,0-.2-.2-.3-.2s-.2.2-.3.2c0,0,0-.3.1-.4-.1,0-.2-.2-.3-.2h.4v-.3h0s0,.2.1.3h.4c-.1,0-.2.2-.3.2,0,0,0,.3.1.4h.1ZM167.2,27h.4s0-.3.1-.4c0,0,0,.3.1.4h.4c-.1,0-.2.2-.3.2,0,0,0,.3.1.4-.1,0-.2-.2-.3-.2s-.2.2-.3.2c0,0,0-.3.1-.4-.1,0-.2-.2-.3-.2ZM168.5,29.4c-.1,0-.2-.2-.3-.2s-.2,0-.3.2c0,0,0-.3.1-.4-.1,0-.2-.2-.3-.2h.4v-.3h0s0,.2.1.3h.4c-.1,0-.2.2-.3.2,0,0,0,.3.1.4h.1ZM168.6,27.3s0-.3.1-.4c-.1,0-.2-.2-.3-.2h.4s0-.3.1-.4c0,0,0,.3.1.4h.4c-.1,0-.2.2-.3.2,0,0,0,.3.1.4-.1,0-.2-.2-.3-.2s-.2.2-.3.2ZM170,29.4c-.1,0-.2-.2-.3-.2s-.2.2-.3.2c0,0,0-.3.1-.4-.1,0-.2-.2-.3-.2h.4s0-.3.1-.4c0,0,0,.3.1.4h.4c-.1,0-.2.2-.3.2,0,0,0,.2.1.4ZM170.1,27.4c-.1,0-.2,0-.3.2,0,0,0-.3.1-.4-.1,0-.2-.2-.3-.2h.4s.1-.3.1-.4c0,0,0,.3.1.4h.4c-.1,0-.2.2-.3.2,0,0,0,.3.1.4-.1,0-.2-.2-.3-.2ZM171.3,29.4c-.1,0-.2-.2-.3-.2s-.2.2-.3.2c0,0,0-.3.1-.4-.1,0-.2-.2-.3-.2h.4s0-.3.1-.4c0,0,0,.3.1.4h.4c-.1,0-.2.2-.3.2,0,0,0,.3.1.4ZM171.6,27.9c-.1,0-.2-.2-.3-.2s-.2.2-.3.2c0,0,0-.3.1-.4-.1,0-.2-.2-.3-.2h.4s0-.3.1-.4c0,0,.1.3.1.4h.4c-.1,0-.2.2-.3.2,0,0,0,.3.1.4ZM172.7,29.4c-.1,0-.2-.2-.3-.2s-.2.2-.3.2c0,0,0-.3.1-.4-.1,0-.2-.2-.3-.2h.4s0-.3.1-.4c0,0,0,.3.1.4h.4c-.1,0-.2.2-.3.2,0,0,0,.3.1.4ZM172.6,27.8s0,.3.1.4c-.1,0-.2-.2-.3-.2s-.2.2-.3.2c0,0,0-.3.1-.4-.1,0-.2-.2-.3-.2h.4s0-.2.1-.4c0,0,0,.3.1.4h.4c-.1,0-.2.2-.3.3h0Z"/>
    <path class="cls-1" d="M165.2,30.3h-.6c.1.9.3,1.9.6,2.7v-2.7Z"/>
    <path class="cls-1" d="M166,34.6c.2.3.4.6.6.8v-5.1h-.7v4.3h0Z"/>
    <path class="cls-1" d="M167.9,36.7v-6.3h-.7v5.8c.2.2.4.4.7.5Z"/>
    <path class="cls-1" d="M169.3,37.1v-6.7h-.7v6.7h.7Z"/>
    <path class="cls-1" d="M169.9,36.7c.2-.2.5-.3.7-.5v-5.8h-.7v6.3Z"/>
    <path class="cls-1" d="M171.3,35.4c.2-.3.4-.6.6-.9v-4.3h-.7v5.1h0Z"/>
    <path class="cls-1" d="M172.6,30.3v2.7c.3-.9.5-1.8.6-2.7h-.6Z"/>
    <path class="cls-1" d="M179.7,37.5c-.5.4-1.1.6-1.7.6s-1.6-.4-2.3-.9c-.4.3-.8.5-1.1.8.3.3.7.5,1,.7.7.4,1.4.6,2.1.7.9,0,1.7,0,2.5-.6.2,0,.5-.3.7-.5,0,1.3-.4,2.6-1.2,3.7-.6.8-1.5,1.5-2.5,1.9-.6.2-1.4.3-2,.2-.6,0-1.1-.3-1.6-.6-.3-.2-.6-.5-.9-.7-.1.4-.3.8-.4,1.2-.8,1.8-1.9,3.5-3.2,4.9-1.2-1.3-2.2-2.8-3-4.3-.2-.4-.4-.8-.5-1.2,0-.2-.1-.4-.2-.6-.3.2-.5.4-.8.6-.5.4-1.2.6-1.9.7-.9,0-1.9-.2-2.7-.6-1-.6-1.9-1.6-2.4-2.7-.4-.8-.6-1.7-.6-2.5.5.4,1,.8,1.6,1,.9.3,1.9.2,2.8-.2.7-.3,1.3-.6,1.9-1.1-.4-.3-.7-.5-1.1-.8-.7.5-1.5.9-2.3.9s-.8,0-1.2-.3c-.3-.2-.6-.4-.9-.7-.5-.5-.9-1.2-1.1-1.9,0-.3-.1-.6-.1-.9-.5,1-.9,2-.9,3.1v1.2c0,1.5.6,3.1,1.6,4.3.9,1.1,2.1,1.9,3.4,2.3.4,0,.8.2,1.2.2h1.2c.5,0,1-.3,1.5-.5.9,1.8,2,3.5,3.4,5,.3.3.6.6,1,.9.3-.2.5-.5.8-.7,1.5-1.5,2.7-3.3,3.6-5.2.5.2,1,.4,1.5.5h1.4c1.2,0,2.3-.6,3.2-1.3,1.7-1.3,2.7-3.4,2.8-5.5v-1.7c-.1-.9-.4-1.7-.9-2.5,0,1.3-.6,2.4-1.6,3.2h-.1Z"/>
    <path class="cls-1" d="M163.5,39.5c-.4.2-.8.3-1.2.3h-1c-.2,0-.3.2-.3.4v.6c.1.2.3.4.5.5,0-.2-.1-.5,0-.7,0,0,.2-.2.3-.2h3.3c.1,0,.3,0,.3.2v.5c.1,0,.3,0,.4-.3.2-.2.2-.6.1-.8,0,0-.2-.2-.3-.3h-1.2c.1-.3.3-.5.4-.7.4.2.7.2,1.1.3.3-.8.7-1.7,1.1-2.5-.6-.5-1.1-1.1-1.6-1.8-.1-.2-.2-.3-.3-.5-.5,1.2-1,2.4-1.5,3.6v.3c.1,0,.3.2.5.3-.2.3-.4.6-.7.8h0Z"/>
    <path class="cls-1" d="M174.2,38c-.5-1.2-1-2.4-1.5-3.6h0c-.5.9-1,1.7-1.8,2.3.4.8.7,1.7,1.1,2.6.4,0,.7,0,1.1-.3.1.2.3.5.4.7h-1.4c-.1,0-.2.3-.2.5s0,.4.2.5c.1,0,.2.2.3.2,0-.2-.1-.3,0-.5,0,0,.2-.2.3-.2h3.3c.1,0,.2,0,.3.2v.6c.2,0,.4-.3.5-.5.1-.3.2-.6,0-.9,0,0-.2-.2-.3-.2h-.9c-.4,0-.7,0-1-.3-.1,0-.3,0-.4-.2-.2-.2-.3-.4-.4-.6.2,0,.4-.2.5-.3v-.4.4Z"/>
    <path class="cls-1" d="M166.8,39c.5,0,1,.2,1.6.2.9,0,1.9,0,2.8-.2-.2-.6-.5-1.2-.7-1.9-.5.3-.9.6-1.5.8-.5-.2-1-.5-1.5-.8-.2.4-.3.7-.4,1.1,0,.2-.2.5-.3.7h0Z"/>
    <path class="cls-1" d="M180.7,44.3c0,.7.4,1.3,1,1.5s1.3,0,1.7-.4c.5-.6.6-1.5.1-2.1-.4-.5-1.1-.7-1.7-.6-.7.2-1.2.8-1.2,1.5h0ZM183.3,43.6c.4.5.3,1.3-.1,1.8-.2.2-.5.4-.9.4s-.6,0-.9-.4c-.3-.3-.5-.8-.4-1.2,0-.5.5-1,1-1.1s1,0,1.3.5h0Z"/>
    <path class="cls-1" d="M181.7,45.3h.3v-.8c.2,0,.4,0,.5.2,0,.2,0,.4.2.6h.3c0-.2,0-.4-.2-.7,0,0-.1-.2-.2-.2.1,0,.2,0,.3-.2s0-.5-.2-.6h-1v1.8h0ZM182,43.7h.5c.1,0,.1.3,0,.4h-.5v-.6h0v.2Z"/>
  </g>
  <g>
    <path class="cls-1" d="M163.1,12.8c-.7,1.4-1.2,2.8-1.5,4.3,0,.2,0,.4-.1.6-1.3-.7-2.8-1-4.3-1.2h-1.7c-1.5,0-3,.7-4.2,1.5-.6.4-1.1.8-1.5,1.3h2c1.2-.8,2.6-1.4,4.1-1.5,1.4,0,2.9.2,4.3.7.5.2,1,.4,1.5.7.3.2.7.5,1,.7,0-.7.1-1.4.3-2.1.4-2.3,1.4-4.4,2.5-6.4,1.2-2.2,2.5-4.4,3.7-6.6.6,1.2,1.2,2.4,1.9,3.5.8,1.5,1.7,3,2.5,4.5.9,1.7,1.6,3.5,1.9,5.5,0,.6.1,1.1.2,1.7.4-.2.7-.5,1.1-.8,1.4-.8,3-1.2,4.6-1.3h1.4c1.3.2,2.6.7,3.7,1.4h2c-.5-.6-1.2-1-1.8-1.4-1.3-.8-2.8-1.3-4.3-1.3s-2.8,0-4.1.6c-.5.2-1.1.4-1.6.6,0-.3-.1-.7-.2-1-.5-2-1.3-3.8-2.3-5.6-1.3-2.5-2.8-4.8-4-7.3-.3-.7-.7-1.4-1-2.1h0c-.5,1.2-1.1,2.4-1.7,3.6-1.3,2.5-2.9,5-4.1,7.5h-.3,0Z"/>
    <path class="cls-1" d="M169.9,18.8c-.2-2.6-.4-5.2-.6-7.8-.1-1.7-.2-3.5-.4-5.2-.3,4-.6,8-.8,12.1v1h1.8Z"/>
    <path class="cls-1" d="M184.7,20h-5.2c-.6,0-1.2,0-1.7.2-1.2.4-2.3,1.1-3.3,2-.6.6-1.1,1.1-1.7,1.6-.3.2-.5.4-.9.6,0,0-.2,0-.2-.2-.1-.2-.2-.5-.3-.8-.2-1-.3-2.1-.5-3.1.2-.3.3-.6.5-.8h-1c-.6,0-1.3-.2-1.9,0-.5,0-.8.5-1,.9h-1.1c-.2,0-.4,0-.5.3s-.1.6,0,.9c0,0,.2.3.3.3h.2s-.2-.3-.1-.5c0,0,.3-.2.4-.2h1.3c.2,0,.3,0,.5-.2.1,0,.1-.2.2-.3h-.5v-.2c.5,0,1.1-.2,1.7,0,.2,0,.4.2.5.4.2,1.2.4,2.4.6,3.6-.8,0-1.7.2-2.5,0h-.5c.2-.6.4-1.3.6-1.9v-.5c0-.2-.1-.2-.2-.3-.3-.2-.6-.2-.9-.2h-.9c.1,0,.2.3.3.4.2.2.5.3.7.4-.1.4-.3.8-.5,1.3,0,.2-.3.4-.4.5-.1,0-.3.2-.4.2h-.3c-.2,0-.5-.3-.7-.5-.7-.5-1.3-1.1-1.9-1.7-.9-.9-2.1-1.6-3.4-1.9h-11.2c.1.3.3.6.6.8.2,0,.3.2.5.2,1,0,1.9.2,2.9.3.5,0,1,0,1.5.2h-4.5c.2.4.5.7.9.9.2,0,.4,0,.6.2.7,0,1.5.2,2.2.3h1-3.4c.2.4.4.7.8.9.2,0,.4.2.6.2,1.1.2,2.3.3,3.4.4h-3.3c.3.4.7.8,1.2,1,.3,0,.7,0,1,.2.9,0,1.8.2,2.7.3h-3.1c.3.4.7.8,1.2.9.5,0,1,.2,1.5.2s1.2.2,1.8.2h-2.7c.4.6,1.1,1,1.8,1.1.8,0,1.7.3,2.5.4h-1.9c.4.3.8.6,1.2.8.3,0,.6.2.9.3.6,0,1.2.2,1.7.3h-1.3c.9.5,1.8,1,2.6,1.6v.3c-1,1-2,2-3,2.9.3.6.8,1.1,1.3,1.5.3.3.7.5,1.1.8h.3c.5-1,.9-2.1,1.4-3.2,0,0,.1-.2.1-.3s-.1-.3-.2-.4c-.5-1.2-.7-2.6-.8-3.9v-1.6c0-.5,0-1,.1-1.5,1.6-.4,3.2-.7,4.8-1.1h.3c1.6.4,3.2.7,4.8,1.1.1,1,.1,2,0,3.1-.1,1.3-.3,2.7-.8,3.9,0,0-.1.2-.1.4v.2c.5,1.1,1,2.2,1.5,3.3.5-.3.9-.6,1.4-1s.9-.9,1.2-1.4c-1-1-2-2-3-2.9v-.2c.9-.5,1.8-1.1,2.6-1.6h-1.3c.6,0,1.2-.2,1.7-.3.3,0,.6,0,.9-.3.4-.2.8-.5,1.2-.8h-1.9c.8,0,1.6-.2,2.5-.4.2,0,.4,0,.6-.2.5-.2.9-.6,1.2-1h-2.7c.9,0,1.8-.3,2.8-.4.3,0,.6,0,.9-.2.4-.2.7-.5.9-.8h-3,.9c.9,0,1.8-.2,2.7-.3.6,0,1-.6,1.3-1h-3.2c1,0,2-.2,2.9-.3.3,0,.6,0,.9-.2.4-.2.7-.6.9-1h-3.4.7c1,0,1.9-.2,2.9-.3.5,0,.9-.6,1.2-1h-4.5c.8,0,1.6-.2,2.4-.3.7,0,1.4-.2,2.2-.3.5,0,.8-.5.9-1h-4.6v-.2h0Z"/>
    <path class="cls-1" d="M152.2,33.3c.4.3.8.5,1.2.7.3,0,.6.3.9.5-.3-.8-.3-1.7,0-2.6.4-1,1-1.8,1.8-2.5.3-.3.7-.5,1.1-.6-.4-.3-.9-.6-1.3-.8-.8.5-1.5,1.1-2,1.9-.5.7-.9,1.5-1,2.4-1.4-.9-2.6-2.2-3.4-3.8-.5-1-.8-2.2-.8-3.4s0-1.5.3-2.3c0-.2.2-.5.3-.7-.3-.4-.6-.8-.9-1.2-.6,1.1-1,2.3-1,3.6v.8c0,1.4.4,2.7,1,4,.8,1.6,2.2,3,3.7,4.1h0Z"/>
    <path class="cls-1" d="M188.5,22.1c0,.2.2.4.2.6.3.9.4,1.9.3,2.9,0,.8-.2,1.5-.5,2.3-.7,1.8-2,3.2-3.6,4.3-.3-1.2-.8-2.2-1.7-3.1-.4-.4-.9-.8-1.4-1.1-.4.3-.9.6-1.3.8.2,0,.4.2.6.3,1,.6,1.8,1.6,2.3,2.8.3.8.3,1.7,0,2.6.4-.2.9-.4,1.3-.7,1.1-.6,2.1-1.4,3-2.4,1.1-1.2,1.9-2.6,2.3-4.1.2-.7.3-1.3.3-2v-.8c0-1.3-.4-2.5-1-3.6-.3.4-.6.8-.9,1.2h0Z"/>
    <path class="cls-1" d="M152.6,26.7c-.2-.6-.4-1.2-.6-1.8-.2.6-.4,1.2-.6,1.8h-1.8c.5.4,1,.7,1.5,1.1-.1.3-.2.6-.3.8,0,.3-.2.6-.3.9.5-.4,1-.7,1.5-1.1.5.4,1,.7,1.5,1.1-.2-.6-.4-1.2-.6-1.8.5-.4,1-.7,1.5-1.1h-1.8,0Z"/>
    <path class="cls-1" d="M186.3,26.7c-.2-.6-.4-1.2-.6-1.7,0,.2-.1.4-.2.6-.1.4-.3.8-.4,1.2h-1.8c.4.3.7.5,1.1.8.1,0,.3.2.4.3,0,0,0,.3-.1.4l-.4,1.4c.5-.3,1-.7,1.4-1h.2c.5.3.9.7,1.4,1-.2-.6-.4-1.2-.6-1.8.5-.4,1-.7,1.5-1.1h-1.9,0Z"/>
    <path class="cls-1" d="M173.3,27.1c-1.3-.3-2.7-.6-4-.9h-.5c-1.4.3-2.8.6-4.2,1v2.5h8.8v-2.6h-.1ZM165.8,29.4c-.1,0-.2-.2-.3-.2s-.2,0-.3.2c0,0,0-.3.1-.4-.1,0-.2-.2-.3-.2h.4s0-.3.1-.4c0,0,0,.3.1.4h.4c-.1,0-.2.2-.3.2,0,0,0,.3.1.4ZM165.6,27.8s0,.3.1.4c-.1,0-.2-.2-.3-.2s-.2.2-.3.2c0,0,0-.3.1-.4-.1,0-.2-.2-.3-.2h.4s0-.3.1-.4c0,0,0,.3.1.4h.4c-.1,0-.2.2-.3.2ZM166.1,27.3h.4s0-.3.1-.4c0,0,0,.3.1.4h.4c-.1,0-.2,0-.3.2,0,0,0,.3.1.4-.1,0-.2-.2-.3-.2s-.2.2-.3.2c0,0,0-.3.1-.4-.1,0-.2-.2-.3-.2ZM167.2,29.4c-.1,0-.2-.2-.3-.2s-.2.2-.3.2c0,0,0-.3.1-.4-.1,0-.2-.2-.3-.2h.4v-.3h0s0,.2.1.3h.4c-.1,0-.2.2-.3.2,0,0,0,.3.1.4h.1ZM167.2,27h.4s0-.3.1-.4c0,0,0,.3.1.4h.4c-.1,0-.2.2-.3.2,0,0,0,.3.1.4-.1,0-.2-.2-.3-.2s-.2.2-.3.2c0,0,0-.3.1-.4-.1,0-.2-.2-.3-.2ZM168.5,29.4c-.1,0-.2-.2-.3-.2s-.2,0-.3.2c0,0,0-.3.1-.4-.1,0-.2-.2-.3-.2h.4v-.3h0s0,.2.1.3h.4c-.1,0-.2.2-.3.2,0,0,0,.3.1.4h.1ZM168.6,27.3s0-.3.1-.4c-.1,0-.2-.2-.3-.2h.4s0-.3.1-.4c0,0,0,.3.1.4h.4c-.1,0-.2.2-.3.2,0,0,0,.3.1.4-.1,0-.2-.2-.3-.2s-.2.2-.3.2ZM170,29.4c-.1,0-.2-.2-.3-.2s-.2.2-.3.2c0,0,0-.3.1-.4-.1,0-.2-.2-.3-.2h.4s0-.3.1-.4c0,0,0,.3.1.4h.4c-.1,0-.2.2-.3.2,0,0,0,.2.1.4ZM170.1,27.4c-.1,0-.2,0-.3.2,0,0,0-.3.1-.4-.1,0-.2-.2-.3-.2h.4s.1-.3.1-.4c0,0,0,.3.1.4h.4c-.1,0-.2.2-.3.2,0,0,0,.3.1.4-.1,0-.2-.2-.3-.2ZM171.3,29.4c-.1,0-.2-.2-.3-.2s-.2.2-.3.2c0,0,0-.3.1-.4-.1,0-.2-.2-.3-.2h.4s0-.3.1-.4c0,0,0,.3.1.4h.4c-.1,0-.2.2-.3.2,0,0,0,.3.1.4ZM171.6,27.9c-.1,0-.2-.2-.3-.2s-.2.2-.3.2c0,0,0-.3.1-.4-.1,0-.2-.2-.3-.2h.4s0-.3.1-.4c0,0,.1.3.1.4h.4c-.1,0-.2.2-.3.2,0,0,0,.3.1.4ZM172.7,29.4c-.1,0-.2-.2-.3-.2s-.2.2-.3.2c0,0,0-.3.1-.4-.1,0-.2-.2-.3-.2h.4s0-.3.1-.4c0,0,0,.3.1.4h.4c-.1,0-.2.2-.3.2,0,0,0,.3.1.4ZM172.6,27.8s0,.3.1.4c-.1,0-.2-.2-.3-.2s-.2.2-.3.2c0,0,0-.3.1-.4-.1,0-.2-.2-.3-.2h.4s0-.2.1-.4c0,0,0,.3.1.4h.4c-.1,0-.2.2-.3.3h0Z"/>
    <path class="cls-1" d="M165.2,30.3h-.6c.1.9.3,1.9.6,2.7v-2.7Z"/>
    <path class="cls-1" d="M166,34.6c.2.3.4.6.6.8v-5.1h-.7v4.3h0Z"/>
    <path class="cls-1" d="M167.9,36.7v-6.3h-.7v5.8c.2.2.4.4.7.5Z"/>
    <path class="cls-1" d="M169.3,37.1v-6.7h-.7v6.7h.7Z"/>
    <path class="cls-1" d="M169.9,36.7c.2-.2.5-.3.7-.5v-5.8h-.7v6.3Z"/>
    <path class="cls-1" d="M171.3,35.4c.2-.3.4-.6.6-.9v-4.3h-.7v5.1h0Z"/>
    <path class="cls-1" d="M172.6,30.3v2.7c.3-.9.5-1.8.6-2.7h-.6Z"/>
    <path class="cls-1" d="M179.7,37.5c-.5.4-1.1.6-1.7.6s-1.6-.4-2.3-.9c-.4.3-.8.5-1.1.8.3.3.7.5,1,.7.7.4,1.4.6,2.1.7.9,0,1.7,0,2.5-.6.2,0,.5-.3.7-.5,0,1.3-.4,2.6-1.2,3.7-.6.8-1.5,1.5-2.5,1.9-.6.2-1.4.3-2,.2-.6,0-1.1-.3-1.6-.6-.3-.2-.6-.5-.9-.7-.1.4-.3.8-.4,1.2-.8,1.8-1.9,3.5-3.2,4.9-1.2-1.3-2.2-2.8-3-4.3-.2-.4-.4-.8-.5-1.2,0-.2-.1-.4-.2-.6-.3.2-.5.4-.8.6-.5.4-1.2.6-1.9.7-.9,0-1.9-.2-2.7-.6-1-.6-1.9-1.6-2.4-2.7-.4-.8-.6-1.7-.6-2.5.5.4,1,.8,1.6,1,.9.3,1.9.2,2.8-.2.7-.3,1.3-.6,1.9-1.1-.4-.3-.7-.5-1.1-.8-.7.5-1.5.9-2.3.9s-.8,0-1.2-.3c-.3-.2-.6-.4-.9-.7-.5-.5-.9-1.2-1.1-1.9,0-.3-.1-.6-.1-.9-.5,1-.9,2-.9,3.1v1.2c0,1.5.6,3.1,1.6,4.3.9,1.1,2.1,1.9,3.4,2.3.4,0,.8.2,1.2.2h1.2c.5,0,1-.3,1.5-.5.9,1.8,2,3.5,3.4,5,.3.3.6.6,1,.9.3-.2.5-.5.8-.7,1.5-1.5,2.7-3.3,3.6-5.2.5.2,1,.4,1.5.5h1.4c1.2,0,2.3-.6,3.2-1.3,1.7-1.3,2.7-3.4,2.8-5.5v-1.7c-.1-.9-.4-1.7-.9-2.5,0,1.3-.6,2.4-1.6,3.2h-.1Z"/>
    <path class="cls-1" d="M163.5,39.5c-.4.2-.8.3-1.2.3h-1c-.2,0-.3.2-.3.4v.6c.1.2.3.4.5.5,0-.2-.1-.5,0-.7,0,0,.2-.2.3-.2h3.3c.1,0,.3,0,.3.2v.5c.1,0,.3,0,.4-.3.2-.2.2-.6.1-.8,0,0-.2-.2-.3-.3h-1.2c.1-.3.3-.5.4-.7.4.2.7.2,1.1.3.3-.8.7-1.7,1.1-2.5-.6-.5-1.1-1.1-1.6-1.8-.1-.2-.2-.3-.3-.5-.5,1.2-1,2.4-1.5,3.6v.3c.1,0,.3.2.5.3-.2.3-.4.6-.7.8h0Z"/>
    <path class="cls-1" d="M174.2,38c-.5-1.2-1-2.4-1.5-3.6h0c-.5.9-1,1.7-1.8,2.3.4.8.7,1.7,1.1,2.6.4,0,.7,0,1.1-.3.1.2.3.5.4.7h-1.4c-.1,0-.2.3-.2.5s0,.4.2.5c.1,0,.2.2.3.2,0-.2-.1-.3,0-.5,0,0,.2-.2.3-.2h3.3c.1,0,.2,0,.3.2v.6c.2,0,.4-.3.5-.5.1-.3.2-.6,0-.9,0,0-.2-.2-.3-.2h-.9c-.4,0-.7,0-1-.3-.1,0-.3,0-.4-.2-.2-.2-.3-.4-.4-.6.2,0,.4-.2.5-.3v-.4.4Z"/>
    <path class="cls-1" d="M166.8,39c.5,0,1,.2,1.6.2.9,0,1.9,0,2.8-.2-.2-.6-.5-1.2-.7-1.9-.5.3-.9.6-1.5.8-.5-.2-1-.5-1.5-.8-.2.4-.3.7-.4,1.1,0,.2-.2.5-.3.7h0Z"/>
    <path class="cls-1" d="M180.7,44.3c0,.7.4,1.3,1,1.5s1.3,0,1.7-.4c.5-.6.6-1.5.1-2.1-.4-.5-1.1-.7-1.7-.6-.7.2-1.2.8-1.2,1.5h0ZM183.3,43.6c.4.5.3,1.3-.1,1.8-.2.2-.5.4-.9.4s-.6,0-.9-.4c-.3-.3-.5-.8-.4-1.2,0-.5.5-1,1-1.1s1,0,1.3.5h0Z"/>
    <path class="cls-1" d="M181.7,45.3h.3v-.8c.2,0,.4,0,.5.2,0,.2,0,.4.2.6h.3c0-.2,0-.4-.2-.7,0,0-.1-.2-.2-.2.1,0,.2,0,.3-.2s0-.5-.2-.6h-1v1.8h0ZM182,43.7h.5c.1,0,.1.3,0,.4h-.5v-.6h0v.2Z"/>
  </g>
</svg>